<svg xmlns="http://www.w3.org/2000/svg" viewBox="0 0 100 100" fill="none">
  <circle cx="50" cy="50" r="48" fill="#0a0a0a"/>
  <g transform="translate(50,50)">
    <path d="M 0,0 C -4,-12 -2,-24 8,-30 C 18,-36 26,-28 24,-18 C 22,-10 14,-6 6,-3"
          stroke="#f97316" stroke-width="5.5" stroke-linecap="round"/>
    <path d="M 0,0 C -4,-12 -2,-24 8,-30 C 18,-36 26,-28 24,-18 C 22,-10 14,-6 6,-3"
          stroke="#f97316" stroke-width="5.5" stroke-linecap="round"
          transform="rotate(120)"/>
    <path d="M 0,0 C -4,-12 -2,-24 8,-30 C 18,-36 26,-28 24,-18 C 22,-10 14,-6 6,-3"
          stroke="#f97316" stroke-width="5.5" stroke-linecap="round"
          transform="rotate(240)"/>
    <circle r="4.5" fill="#f97316"/>
  </g>
</svg>
